<svg width="227" height="227" viewBox="0 0 227 227" fill="none" xmlns="http://www.w3.org/2000/svg">
<path d="M3.17543 119C1.21046 115.597 1.21047 111.403 3.17543 108L53.5746 20.7061C55.5395 17.3027 59.1709 15.2061 63.1009 15.2061L163.899 15.2061C167.829 15.2061 171.46 17.3027 173.425 20.7061L223.825 108C225.79 111.403 225.79 115.597 223.825 119L173.425 206.294C171.46 209.697 167.829 211.794 163.899 211.794L63.1009 211.794C59.1709 211.794 55.5395 209.697 53.5746 206.294L3.17543 119Z" fill="url(#paint0_linear_417_2)"/>
<path d="M22.7529 116.5C21.8598 114.953 21.8598 113.047 22.7529 111.5L66.2109 36.2275C67.104 34.6807 68.7549 33.7277 70.541 33.7275L157.459 33.7275C159.245 33.7277 160.896 34.6807 161.789 36.2275L205.247 111.5C206.084 112.95 206.137 114.716 205.404 116.206L205.247 116.5L161.789 191.772C160.896 193.319 159.245 194.272 157.459 194.272L70.541 194.272C68.7549 194.272 67.104 193.319 66.2109 191.772L22.7529 116.5Z" stroke="#82389C" stroke-width="4"/>
<g filter="url(#filter0_d_417_2)">
<path d="M119.653 164.26C116.857 168.088 111.143 168.088 108.347 164.26L58.0415 95.3785C54.6636 90.7532 57.967 84.25 63.6944 84.25L164.306 84.25C170.033 84.25 173.336 90.7532 169.958 95.3785L119.653 164.26Z" fill="url(#paint1_linear_417_2)"/>
</g>
<path d="M110.311 116L105.719 110.912V116H104.263V104.848H105.719V110.016L110.327 104.848H112.167L107.111 110.432L112.215 116H110.311ZM113.297 110.416C113.297 109.328 113.543 108.352 114.033 107.488C114.524 106.613 115.191 105.931 116.033 105.44C116.887 104.949 117.831 104.704 118.865 104.704C120.081 104.704 121.143 104.997 122.049 105.584C122.956 106.171 123.617 107.003 124.033 108.08H122.289C121.98 107.408 121.532 106.891 120.945 106.528C120.369 106.165 119.676 105.984 118.865 105.984C118.087 105.984 117.388 106.165 116.769 106.528C116.151 106.891 115.665 107.408 115.313 108.08C114.961 108.741 114.785 109.52 114.785 110.416C114.785 111.301 114.961 112.08 115.313 112.752C115.665 113.413 116.151 113.925 116.769 114.288C117.388 114.651 118.087 114.832 118.865 114.832C119.676 114.832 120.369 114.656 120.945 114.304C121.532 113.941 121.98 113.424 122.289 112.752H124.033C123.617 113.819 122.956 114.645 122.049 115.232C121.143 115.808 120.081 116.096 118.865 116.096C117.831 116.096 116.887 115.856 116.033 115.376C115.191 114.885 114.524 114.208 114.033 113.344C113.543 112.48 113.297 111.504 113.297 110.416Z" fill="black"/>
<path d="M3.17543 119C1.21046 115.597 1.21047 111.403 3.17543 108L53.5746 20.7061C55.5395 17.3027 59.1709 15.2061 63.1009 15.2061L163.899 15.2061C167.829 15.2061 171.46 17.3027 173.425 20.7061L223.825 108C225.79 111.403 225.79 115.597 223.825 119L173.425 206.294C171.46 209.697 167.829 211.794 163.899 211.794L63.1009 211.794C59.1709 211.794 55.5395 209.697 53.5746 206.294L3.17543 119Z" fill="url(#paint2_linear_417_2)"/>
<path d="M22.7529 116.5C21.8598 114.953 21.8598 113.047 22.7529 111.5L66.2109 36.2275C67.104 34.6807 68.7549 33.7277 70.541 33.7275L157.459 33.7275C159.245 33.7277 160.896 34.6807 161.789 36.2275L205.247 111.5C206.084 112.95 206.137 114.716 205.404 116.206L205.247 116.5L161.789 191.772C160.896 193.319 159.245 194.272 157.459 194.272L70.541 194.272C68.7549 194.272 67.104 193.319 66.2109 191.772L22.7529 116.5Z" stroke="#82389C" stroke-width="4"/>
<g filter="url(#filter1_d_417_2)">
<path d="M119.653 164.26C116.857 168.088 111.143 168.088 108.347 164.26L58.0415 95.3785C54.6636 90.7532 57.967 84.25 63.6944 84.25L164.306 84.25C170.033 84.25 173.336 90.7532 169.958 95.3785L119.653 164.26Z" fill="url(#paint3_linear_417_2)"/>
</g>
<path d="M105.931 124L95.8859 112.87V124H92.7009V99.605H95.8859V110.91L105.966 99.605H109.991L98.9309 111.82L110.096 124H105.931ZM112.463 111.785C112.463 109.405 113 107.27 114.073 105.38C115.146 103.467 116.605 101.973 118.448 100.9C120.315 99.8267 122.38 99.29 124.643 99.29C127.303 99.29 129.625 99.9317 131.608 101.215C133.591 102.498 135.038 104.318 135.948 106.675H132.133C131.456 105.205 130.476 104.073 129.193 103.28C127.933 102.487 126.416 102.09 124.643 102.09C122.94 102.09 121.411 102.487 120.058 103.28C118.705 104.073 117.643 105.205 116.873 106.675C116.103 108.122 115.718 109.825 115.718 111.785C115.718 113.722 116.103 115.425 116.873 116.895C117.643 118.342 118.705 119.462 120.058 120.255C121.411 121.048 122.94 121.445 124.643 121.445C126.416 121.445 127.933 121.06 129.193 120.29C130.476 119.497 131.456 118.365 132.133 116.895H135.948C135.038 119.228 133.591 121.037 131.608 122.32C129.625 123.58 127.303 124.21 124.643 124.21C122.38 124.21 120.315 123.685 118.448 122.635C116.605 121.562 115.146 120.08 114.073 118.19C113 116.3 112.463 114.165 112.463 111.785Z" fill="black"/>
<defs>
<filter id="filter0_d_417_2" x="52.6819" y="84.25" width="122.636" height="90.8812" filterUnits="userSpaceOnUse" color-interpolation-filters="sRGB">
<feFlood flood-opacity="0" result="BackgroundImageFix"/>
<feColorMatrix in="SourceAlpha" type="matrix" values="0 0 0 0 0 0 0 0 0 0 0 0 0 0 0 0 0 0 127 0" result="hardAlpha"/>
<feOffset dy="4"/>
<feGaussianBlur stdDeviation="2"/>
<feComposite in2="hardAlpha" operator="out"/>
<feColorMatrix type="matrix" values="0 0 0 0 0 0 0 0 0 0 0 0 0 0 0 0 0 0 0.1 0"/>
<feBlend mode="normal" in2="BackgroundImageFix" result="effect1_dropShadow_417_2"/>
<feBlend mode="normal" in="SourceGraphic" in2="effect1_dropShadow_417_2" result="shape"/>
</filter>
<filter id="filter1_d_417_2" x="52.6819" y="84.25" width="122.636" height="90.8812" filterUnits="userSpaceOnUse" color-interpolation-filters="sRGB">
<feFlood flood-opacity="0" result="BackgroundImageFix"/>
<feColorMatrix in="SourceAlpha" type="matrix" values="0 0 0 0 0 0 0 0 0 0 0 0 0 0 0 0 0 0 127 0" result="hardAlpha"/>
<feOffset dy="4"/>
<feGaussianBlur stdDeviation="2"/>
<feComposite in2="hardAlpha" operator="out"/>
<feColorMatrix type="matrix" values="0 0 0 0 0 0 0 0 0 0 0 0 0 0 0 0 0 0 0.1 0"/>
<feBlend mode="normal" in2="BackgroundImageFix" result="effect1_dropShadow_417_2"/>
<feBlend mode="normal" in="SourceGraphic" in2="effect1_dropShadow_417_2" result="shape"/>
</filter>
<linearGradient id="paint0_linear_417_2" x1="58" y1="24" x2="166.5" y2="207.5" gradientUnits="userSpaceOnUse">
<stop stop-color="#B5E0F7"/>
<stop offset="1" stop-color="#7FB2E7"/>
</linearGradient>
<linearGradient id="paint1_linear_417_2" x1="50.8524" y1="55" x2="177.305" y2="171.83" gradientUnits="userSpaceOnUse">
<stop stop-color="#13E2B1"/>
<stop offset="1" stop-color="#2DB796"/>
</linearGradient>
<linearGradient id="paint2_linear_417_2" x1="58" y1="24" x2="166.5" y2="207.5" gradientUnits="userSpaceOnUse">
<stop stop-color="#B5E0F7"/>
<stop offset="1" stop-color="#7FB2E7"/>
</linearGradient>
<linearGradient id="paint3_linear_417_2" x1="50.8524" y1="55" x2="177.305" y2="171.83" gradientUnits="userSpaceOnUse">
<stop stop-color="#00F41C"/>
<stop offset="1" stop-color="#2DB796"/>
</linearGradient>
</defs>
</svg>
