<svg width="227" height="227" viewBox="0 0 227 227" fill="none" xmlns="http://www.w3.org/2000/svg">
<path d="M3.17543 119C1.21046 115.597 1.21047 111.403 3.17543 108L53.5746 20.7061C55.5395 17.3027 59.1709 15.2061 63.1009 15.2061L163.899 15.2061C167.829 15.2061 171.46 17.3027 173.425 20.7061L223.825 108C225.79 111.403 225.79 115.597 223.825 119L173.425 206.294C171.46 209.697 167.829 211.794 163.899 211.794L63.1009 211.794C59.1709 211.794 55.5395 209.697 53.5746 206.294L3.17543 119Z" fill="url(#paint0_linear_329_38)"/>
<path d="M22.7529 116.5C21.8598 114.953 21.8598 113.047 22.7529 111.5L66.2109 36.2275C67.104 34.6807 68.7549 33.7277 70.541 33.7275L157.459 33.7275C159.245 33.7277 160.896 34.6807 161.789 36.2275L205.247 111.5C206.084 112.95 206.137 114.716 205.404 116.206L205.247 116.5L161.789 191.772C160.896 193.319 159.245 194.272 157.459 194.272L70.541 194.272C68.7549 194.272 67.104 193.319 66.2109 191.772L22.7529 116.5Z" stroke="#82389C" stroke-width="4"/>
<g filter="url(#filter0_d_329_38)">
<path d="M119.653 164.26C116.857 168.088 111.143 168.088 108.347 164.26L58.0415 95.3785C54.6636 90.7532 57.967 84.25 63.6944 84.25L164.306 84.25C170.033 84.25 173.336 90.7532 169.958 95.3785L119.653 164.26Z" fill="url(#paint1_linear_329_38)"/>
</g>
<path d="M110.311 116L105.719 110.912V116H104.263V104.848H105.719V110.016L110.327 104.848H112.167L107.111 110.432L112.215 116H110.311ZM113.297 110.416C113.297 109.328 113.543 108.352 114.033 107.488C114.524 106.613 115.191 105.931 116.033 105.44C116.887 104.949 117.831 104.704 118.865 104.704C120.081 104.704 121.143 104.997 122.049 105.584C122.956 106.171 123.617 107.003 124.033 108.08H122.289C121.98 107.408 121.532 106.891 120.945 106.528C120.369 106.165 119.676 105.984 118.865 105.984C118.087 105.984 117.388 106.165 116.769 106.528C116.151 106.891 115.665 107.408 115.313 108.08C114.961 108.741 114.785 109.52 114.785 110.416C114.785 111.301 114.961 112.08 115.313 112.752C115.665 113.413 116.151 113.925 116.769 114.288C117.388 114.651 118.087 114.832 118.865 114.832C119.676 114.832 120.369 114.656 120.945 114.304C121.532 113.941 121.98 113.424 122.289 112.752H124.033C123.617 113.819 122.956 114.645 122.049 115.232C121.143 115.808 120.081 116.096 118.865 116.096C117.831 116.096 116.887 115.856 116.033 115.376C115.191 114.885 114.524 114.208 114.033 113.344C113.543 112.48 113.297 111.504 113.297 110.416Z" fill="black"/>
<path d="M3.17543 119C1.21046 115.597 1.21047 111.403 3.17543 108L53.5746 20.7061C55.5395 17.3027 59.1709 15.2061 63.1009 15.2061L163.899 15.2061C167.829 15.2061 171.46 17.3027 173.425 20.7061L223.825 108C225.79 111.403 225.79 115.597 223.825 119L173.425 206.294C171.46 209.697 167.829 211.794 163.899 211.794L63.1009 211.794C59.1709 211.794 55.5395 209.697 53.5746 206.294L3.17543 119Z" fill="url(#paint2_linear_329_38)"/>
<path d="M22.7529 116.5C21.8598 114.953 21.8598 113.047 22.7529 111.5L66.2109 36.2275C67.104 34.6807 68.7549 33.7277 70.541 33.7275L157.459 33.7275C159.245 33.7277 160.896 34.6807 161.789 36.2275L205.247 111.5C206.084 112.95 206.137 114.716 205.404 116.206L205.247 116.5L161.789 191.772C160.896 193.319 159.245 194.272 157.459 194.272L70.541 194.272C68.7549 194.272 67.104 193.319 66.2109 191.772L22.7529 116.5Z" stroke="url(#paint3_linear_329_38)" stroke-width="4"/>
<path d="M111.273 163C100.038 162.995 88.9011 160.836 78.4599 156.642C76.9599 156.041 75.973 154.573 75.973 152.941V117.194L60.9983 108.648C57.9046 106.847 56 103.519 56 99.9178C56 96.3212 57.9046 92.9931 60.9934 91.1873L106.373 65.2947C109.413 63.5684 113.133 63.5684 116.173 65.2947L161.553 91.1873C164.646 92.9235 166.576 96.2017 166.605 99.7735C166.65 99.9078 166.581 127.169 166.61 127.318L166.605 127.313C170.479 128.96 173 132.785 173 137.023C173 141.262 170.479 145.087 166.605 146.734V152.519C166.605 154.718 164.839 156.499 162.658 156.499C160.482 156.499 158.711 154.718 158.711 152.519V146.734C154.832 145.097 152.306 141.267 152.306 137.023C152.306 132.78 154.832 128.95 158.711 127.313V110.27L146.572 117.199V152.941C146.572 154.573 145.586 156.035 144.086 156.642C133.645 160.836 122.514 162.995 111.273 163ZM83.8687 150.195C101.578 156.652 120.969 156.652 138.678 150.195V121.701L116.174 134.54C113.134 136.266 109.414 136.266 106.37 134.54L83.8703 121.701L83.8687 150.195ZM160.111 137.003C160.116 137.689 160.393 138.346 160.881 138.824C161.37 139.306 162.026 139.565 162.707 139.555C163.388 139.54 164.039 139.256 164.508 138.759C164.976 138.261 165.233 137.595 165.213 136.908C165.174 135.501 164.014 134.386 162.618 134.411C161.217 134.436 160.101 135.595 160.111 137.003ZM111.273 71.9554C110.918 71.9554 110.567 72.045 110.256 72.2191L64.8814 98.1117C64.235 98.4798 63.8353 99.1713 63.8353 99.9175C63.8353 100.664 64.235 101.355 64.8814 101.723L110.256 127.616C110.888 127.969 111.658 127.969 112.284 127.616L157.669 101.723C158.311 101.355 158.711 100.664 158.711 99.9175C158.711 99.1714 158.311 98.4799 157.664 98.1117L112.289 72.2191C111.979 72.045 111.628 71.9554 111.273 71.9554Z" fill="black"/>
<defs>
<filter id="filter0_d_329_38" x="52.6819" y="84.25" width="122.636" height="90.8812" filterUnits="userSpaceOnUse" color-interpolation-filters="sRGB">
<feFlood flood-opacity="0" result="BackgroundImageFix"/>
<feColorMatrix in="SourceAlpha" type="matrix" values="0 0 0 0 0 0 0 0 0 0 0 0 0 0 0 0 0 0 127 0" result="hardAlpha"/>
<feOffset dy="4"/>
<feGaussianBlur stdDeviation="2"/>
<feComposite in2="hardAlpha" operator="out"/>
<feColorMatrix type="matrix" values="0 0 0 0 0 0 0 0 0 0 0 0 0 0 0 0 0 0 0.1 0"/>
<feBlend mode="normal" in2="BackgroundImageFix" result="effect1_dropShadow_329_38"/>
<feBlend mode="normal" in="SourceGraphic" in2="effect1_dropShadow_329_38" result="shape"/>
</filter>
<linearGradient id="paint0_linear_329_38" x1="58" y1="24" x2="166.5" y2="207.5" gradientUnits="userSpaceOnUse">
<stop stop-color="#B5E0F7"/>
<stop offset="1" stop-color="#7FB2E7"/>
</linearGradient>
<linearGradient id="paint1_linear_329_38" x1="50.8524" y1="55" x2="177.305" y2="171.83" gradientUnits="userSpaceOnUse">
<stop stop-color="#13E2B1"/>
<stop offset="1" stop-color="#2DB796"/>
</linearGradient>
<linearGradient id="paint2_linear_329_38" x1="58" y1="24" x2="166.5" y2="207.5" gradientUnits="userSpaceOnUse">
<stop stop-color="#0F13F6"/>
<stop offset="1" stop-color="#1B1799"/>
</linearGradient>
<linearGradient id="paint3_linear_329_38" x1="209" y1="32.9321" x2="65.6781" y2="229.161" gradientUnits="userSpaceOnUse">
<stop stop-color="#13E2B1"/>
<stop offset="1" stop-color="#2DB796"/>
</linearGradient>
</defs>
</svg>
